<?xml version="1.0" encoding="utf-8"?>
<!-- Generator: Adobe Illustrator 19.2.1, SVG Export Plug-In . SVG Version: 6.00 Build 0)  -->
<svg version="1.1" id="Layer_1" xmlns="http://www.w3.org/2000/svg" xmlns:xlink="http://www.w3.org/1999/xlink" x="0px" y="0px"
	 viewBox="0 0 108 24.8" style="enable-background:new 0 0 108 24.8;" xml:space="preserve">
<style type="text/css">
	.st0{fill:#00B1AF;}
	.st1{fill:#001A4B;}
</style>
<g>
	<path class="st0" d="M24.7,10.3L17.4,3L17,2.6c0,0,0-0.2,0.1,0.7c0.1,0.9-0.6,2-1.5,2.9l-4.3,4.3c-0.9,0.9-0.9,2.4,0,3.3
		c0,0,4.4,4.4,4.4,4.4c0.8,0.7,1.5,2,1.4,2.7C17,21.6,17,21.6,17,21.6l0.4-0.4l7-7C25.6,13,25.8,11.4,24.7,10.3"/>
	<path class="st1" d="M44.2,0.5h2.3v2h-2.3V0.5z M44.2,3.6h2.3v9.9h-2.3V3.6z"/>
	<path class="st1" d="M49.6,3.6h2.2v1.2c0.7-0.7,1.7-1.6,3.7-1.6c2.1,0,3.9,0.9,3.9,3.9v6.3h-2.3V8c0-2-0.6-2.8-2.1-2.8
		c-1.8,0-2.6,0.8-3.1,1.5v6.8h-2.3V3.6"/>
	<path class="st1" d="M70,10.5c-0.3,0.8-1.3,1.5-2.7,1.5c-2.8-0.1-3.2-2.2-3.3-2.8h8.7c0-3.6-1.8-5.9-5.5-5.9
		c-3.6,0-5.5,2.5-5.5,5.3c0,3.1,2.1,5.3,5.7,5.3c3.7,0,5-2.5,5.2-3.3H70 M64,7.4c0.5-1.9,1.8-2.3,3-2.3c1.6,0,2.8,0.6,3.1,2.3H64z"
		/>
	<path class="st1" d="M75.3,3.6h2.3v1.5h0.1c0.5-0.8,1.5-1.8,3.5-1.8c0.3,0,0.6,0,0.8,0v2.5c-0.2-0.1-0.6-0.2-1.4-0.2
		c-2.9,0-2.9,2-2.9,2.7v5.3h-2.3V3.6"/>
	<path class="st1" d="M91.1,10.5c-0.3,0.8-1.3,1.5-2.7,1.5c-2.8-0.1-3.2-2.2-3.3-2.8h8.7c0-3.6-1.8-5.9-5.5-5.9
		c-3.6,0-5.5,2.5-5.5,5.3c0,3.1,2.1,5.3,5.7,5.3c3.7,0,5-2.5,5.2-3.3H91.1 M85.2,7.4c0.5-1.9,1.8-2.3,3-2.3c1.6,0,2.8,0.6,3.1,2.3
		H85.2z"/>
	<polygon class="st1" points="36.9,5.6 42,0.5 39.1,0.5 31.5,8.2 31.5,0.5 29.1,0.5 29.1,13.5 31.5,13.5 31.5,10.9 35.4,7.1 
		40,13.5 42.6,13.5 	"/>
	<path class="st1" d="M104,5.9V3.9h-4.2V0.5h-2.3v3.5h-2.8v1.9l2.8,0V11c0,2.2,1.2,2.9,3.4,2.9c0.8,0,1.3-0.1,2.5-0.2v-2
		c-0.6,0.2-1.5,0.3-2,0.3c-1.3,0-1.6-0.8-1.6-1.5V5.9L104,5.9"/>
	<path class="st1" d="M31.6,16.8c-1,1.1-1.6,2.3-1.6,4c0,1.7,0.6,2.9,1.6,4h-1.2c-0.9-1-1.5-2.4-1.5-4c0-1.6,0.6-3.1,1.5-4H31.6"/>
	<path class="st1" d="M38.3,21.4c-0.6,0-1.2,0.1-1.7,0.3c-0.7,0.2-1,0.4-1,0.9c0,0.4,0.3,0.7,0.8,0.7c0.8,0,1.5-0.4,2-0.7V21.4
		 M39.4,23.2c0,0.4,0,0.7,0.1,0.9h-1.1c0-0.2-0.1-0.4-0.1-0.5c-0.5,0.3-1.2,0.7-2.1,0.7c-0.6,0-1.9-0.3-1.9-1.6c0-1.8,2.4-2,4-2.1
		v-0.2c0-0.4-0.3-0.7-1.3-0.7c-1,0-1.2,0.4-1.3,0.7h-1.2c0.3-1.4,1.6-1.7,2.5-1.7c2.3,0,2.4,1.2,2.4,2V23.2z"/>
	<path class="st1" d="M43.7,18.8h1.1v0.7c0.4-0.4,0.8-0.8,1.8-0.8c1,0,1.9,0.5,1.9,2.1v3.4h-1.1v-2.9c0-1-0.3-1.5-1-1.5
		c-0.9,0-1.3,0.4-1.5,0.8v3.6h-1.1V18.8"/>
	<path class="st1" d="M56.5,21.4c-0.6,0-1.2,0.1-1.7,0.3c-0.7,0.2-1,0.4-1,0.9c0,0.4,0.3,0.7,0.8,0.7c0.8,0,1.5-0.4,2-0.7V21.4
		 M57.6,23.2c0,0.4,0,0.7,0.1,0.9h-1.1c0-0.2-0.1-0.4-0.1-0.5c-0.5,0.3-1.2,0.7-2.1,0.7c-0.6,0-1.9-0.3-1.9-1.6c0-1.8,2.4-2,4-2.1
		v-0.2c0-0.4-0.3-0.7-1.3-0.7c-1,0-1.2,0.4-1.3,0.7h-1.2c0.3-1.4,1.6-1.7,2.5-1.7c2.3,0,2.4,1.2,2.4,2V23.2z"/>
	<polygon class="st1" points="62.1,16.9 63.2,16.9 63.2,21 65.7,18.8 67.3,18.8 65.2,20.6 67.4,24.1 66,24.1 64.3,21.3 63.2,22.3 
		63.2,24.1 62.1,24.1 	"/>
	<path class="st1" d="M71.3,18.8h1.1v5.3h-1.1V18.8z M71.3,16.8h1.1v1.1h-1.1V16.8z"/>
	<path class="st1" d="M77.2,18.8h1.1v0.7c0.4-0.4,0.8-0.8,1.8-0.8c1,0,1.9,0.5,1.9,2.1v3.4h-1.1v-2.9c0-1-0.3-1.5-1-1.5
		c-0.9,0-1.3,0.4-1.5,0.8v3.6h-1.1V18.8"/>
	<path class="st1" d="M86.7,18.8h1.1v0.8h0c0.2-0.4,0.7-1,1.7-1c0.2,0,0.3,0,0.4,0v1.3c-0.1,0-0.3-0.1-0.7-0.1c-1.4,0-1.4,1-1.4,1.4
		v2.8h-1.1V18.8"/>
	<path class="st1" d="M97.1,21.4c-0.6,0-1.2,0.1-1.7,0.3c-0.7,0.2-1,0.4-1,0.9c0,0.4,0.3,0.7,0.8,0.7c0.8,0,1.5-0.4,2-0.7V21.4
		 M98.2,23.2c0,0.4,0,0.7,0.1,0.9h-1.1c0-0.2-0.1-0.4-0.1-0.5c-0.5,0.3-1.2,0.7-2.1,0.7c-0.6,0-1.9-0.3-1.9-1.6c0-1.8,2.4-2,4-2.1
		v-0.2c0-0.4-0.3-0.7-1.3-0.7c-1,0-1.2,0.4-1.3,0.7h-1.2c0.3-1.4,1.6-1.7,2.5-1.7c2.3,0,2.4,1.2,2.4,2V23.2z"/>
	<path class="st1" d="M101.1,24.8c1-1.1,1.6-2.3,1.6-4c0-1.7-0.6-2.9-1.6-4h1.2c0.9,1,1.5,2.4,1.5,4c0,1.6-0.6,3.1-1.5,4H101.1"/>
	<path class="st1" d="M10.1,23.5c0.5,0.5,1.2,0.8,2,0.8c1.5,0,2.8-1.2,2.8-2.8c0-0.8-0.3-1.5-0.8-2L8.5,14c-1-1-1-2.7,0-3.7L14,4.8
		c0.5-0.5,0.8-1.2,0.8-2c0-1.5-1.2-2.8-2.8-2.8c-0.8,0-1.5,0.3-2,0.8L1,9.9l0,0c-0.6,0.5-1,1.3-1,2.2c0,0.8,0.4,1.6,1,2.2L10.1,23.5
		"/>
	<path class="st1" d="M104.7,2.2c0,0.9,0.7,1.7,1.7,1.7c0.9,0,1.7-0.7,1.7-1.7c0-0.9-0.8-1.7-1.7-1.7C105.4,0.5,104.7,1.3,104.7,2.2
		 M104.9,2.2c0-0.8,0.6-1.4,1.4-1.4c0.8,0,1.4,0.6,1.4,1.4c0,0.8-0.6,1.4-1.4,1.4C105.5,3.6,104.9,3,104.9,2.2 M106.9,3.2h0.3
		l-0.6-0.9c0.3,0,0.5-0.2,0.5-0.6c0-0.4-0.2-0.6-0.6-0.6h-0.8v2h0.3V2.3h0.4L106.9,3.2z M105.9,1.4h0.4c0.2,0,0.5,0,0.5,0.3
		c0,0.3-0.2,0.3-0.5,0.3h-0.4V1.4z"/>
</g>
</svg>
