<svg width="108" height="25" viewBox="0 0 108 25" fill="none" xmlns="http://www.w3.org/2000/svg">
<mask id="mask0_664_1802" style="mask-type:alpha" maskUnits="userSpaceOnUse" x="0" y="0" width="108" height="25">
<g clip-path="url(#clip0_664_1802)">
<path d="M24.7 10.301L17.4 3.00097L17 2.60097C17 2.60097 17 2.40097 17.1 3.30097C17.2 4.20097 16.5 5.30097 15.6 6.20097L11.3 10.501C10.4 11.401 10.4 12.901 11.3 13.801L15.7 18.201C16.5 18.901 17.2 20.201 17.1 20.901C17 21.601 17 21.601 17 21.601L17.4 21.201L24.4 14.201C25.6 13.001 25.8 11.401 24.7 10.301Z" fill="#00B1AF"/>
<path d="M44.2002 0.5H46.5002V2.5H44.2002V0.5ZM44.2002 3.6H46.5002V13.5H44.2002V3.6Z" fill="#001A4B"/>
<path d="M49.6001 3.59922H51.8001V4.79922C52.5001 4.09922 53.5001 3.19922 55.5001 3.19922C57.6001 3.19922 59.4001 4.09922 59.4001 7.09922V13.3992H57.1001V7.99922C57.1001 5.99922 56.5001 5.19922 55.0001 5.19922C53.2001 5.19922 52.4001 5.99922 51.9001 6.69922V13.4992H49.6001V3.59922Z" fill="#001A4B"/>
<path d="M70.0002 10.5008C69.7002 11.3008 68.7002 12.0008 67.3002 12.0008C64.5002 11.9008 64.1002 9.80078 64.0002 9.20078H72.7002C72.7002 5.60078 70.9002 3.30078 67.2002 3.30078C63.6002 3.30078 61.7002 5.80078 61.7002 8.60078C61.7002 11.7008 63.8002 13.9008 67.4002 13.9008C71.1002 13.9008 72.4002 11.4008 72.6002 10.6008H70.0002M64.0002 7.40078C64.5002 5.50078 65.8002 5.10078 67.0002 5.10078C68.6002 5.10078 69.8002 5.70078 70.1002 7.40078H64.0002Z" fill="#001A4B"/>
<path d="M75.2998 3.60078H77.5998V5.10078H77.6998C78.1998 4.30078 79.1998 3.30078 81.1998 3.30078C81.4998 3.30078 81.7998 3.30078 81.9998 3.30078V5.80078C81.7998 5.70078 81.3998 5.60078 80.5998 5.60078C77.6998 5.60078 77.6998 7.60078 77.6998 8.30078V13.6008H75.3998V3.60078" fill="#001A4B"/>
<path d="M91.0998 10.5008C90.7998 11.3008 89.7998 12.0008 88.3998 12.0008C85.5998 11.9008 85.1998 9.80078 85.0998 9.20078H93.7998C93.7998 5.60078 91.9998 3.30078 88.2998 3.30078C84.6998 3.30078 82.7998 5.80078 82.7998 8.60078C82.7998 11.7008 84.8998 13.9008 88.4998 13.9008C92.1998 13.9008 93.4998 11.4008 93.6998 10.6008H91.0998M85.1998 7.40078C85.6998 5.50078 86.9998 5.10078 88.1998 5.10078C89.7998 5.10078 90.9998 5.70078 91.2998 7.40078H85.1998Z" fill="#001A4B"/>
<path d="M36.9001 5.6L42.0001 0.5H39.1001L31.5001 8.2V0.5H29.1001V13.5H31.5001V10.9L35.4001 7.1L40.0001 13.5H42.6001L36.9001 5.6Z" fill="#001A4B"/>
<path d="M104 5.9V3.9H99.8002V0.5H97.5002V4H94.7002V5.9H97.5002V11C97.5002 13.2 98.7002 13.9 100.9 13.9C101.7 13.9 102.2 13.8 103.4 13.7V11.7C102.8 11.9 101.9 12 101.4 12C100.1 12 99.8002 11.2 99.8002 10.5V5.9H104Z" fill="#001A4B"/>
<path d="M31.5999 16.8008C30.5999 17.9008 29.9999 19.1008 29.9999 20.8008C29.9999 22.5008 30.5999 23.7008 31.5999 24.8008H30.3999C29.4999 23.8008 28.8999 22.4008 28.8999 20.8008C28.8999 19.2008 29.4999 17.7008 30.3999 16.8008H31.5999Z" fill="#001A4B"/>
<path d="M38.2998 21.3992C37.6998 21.3992 37.0998 21.4992 36.5998 21.6992C35.8998 21.8992 35.5998 22.0992 35.5998 22.5992C35.5998 22.9992 35.8998 23.2992 36.3998 23.2992C37.1998 23.2992 37.8998 22.8992 38.3998 22.5992V21.3992M39.3998 23.1992C39.3998 23.5992 39.3998 23.8992 39.4998 24.0992H38.3998C38.3998 23.8992 38.2998 23.6992 38.2998 23.5992C37.7998 23.8992 37.0998 24.2992 36.1998 24.2992C35.5998 24.2992 34.2998 23.9992 34.2998 22.6992C34.2998 20.8992 36.6998 20.6992 38.2998 20.5992V20.3992C38.2998 19.9992 37.9998 19.6992 36.9998 19.6992C35.9998 19.6992 35.7998 20.0992 35.6998 20.3992H34.4998C34.7998 18.9992 36.0998 18.6992 36.9998 18.6992C39.2998 18.6992 39.3998 19.8992 39.3998 20.6992V23.1992Z" fill="#001A4B"/>
<path d="M43.7002 18.7992H44.8002V19.4992C45.2002 19.0992 45.6002 18.6992 46.6002 18.6992C47.6002 18.6992 48.5002 19.1992 48.5002 20.7992V24.1992H47.4002V21.2992C47.4002 20.2992 47.1002 19.7992 46.4002 19.7992C45.5002 19.7992 45.1002 20.1992 44.9002 20.5992V24.1992H43.8002V18.7992" fill="#001A4B"/>
<path d="M56.5 21.3992C55.9 21.3992 55.3 21.4992 54.8 21.6992C54.1 21.8992 53.8 22.0992 53.8 22.5992C53.8 22.9992 54.1 23.2992 54.6 23.2992C55.4 23.2992 56.1 22.8992 56.6 22.5992V21.3992M57.6 23.1992C57.6 23.5992 57.6 23.8992 57.7 24.0992H56.6C56.6 23.8992 56.5 23.6992 56.5 23.5992C56 23.8992 55.3 24.2992 54.4 24.2992C53.8 24.2992 52.5 23.9992 52.5 22.6992C52.5 20.8992 54.9 20.6992 56.5 20.5992V20.3992C56.5 19.9992 56.2 19.6992 55.2 19.6992C54.2 19.6992 54 20.0992 53.9 20.3992H52.7C53 18.9992 54.3 18.6992 55.2 18.6992C57.5 18.6992 57.6 19.8992 57.6 20.6992V23.1992Z" fill="#001A4B"/>
<path d="M62.1001 16.9004H63.2001V21.0004L65.7001 18.8004H67.3001L65.2001 20.6004L67.4001 24.1004H66.0001L64.3001 21.3004L63.2001 22.3004V24.1004H62.1001V16.9004Z" fill="#001A4B"/>
<path d="M71.2998 18.8008H72.3998V24.1008H71.2998V18.8008ZM71.2998 16.8008H72.3998V17.9008H71.2998V16.8008Z" fill="#001A4B"/>
<path d="M77.2002 18.7992H78.3002V19.4992C78.7002 19.0992 79.1002 18.6992 80.1002 18.6992C81.1002 18.6992 82.0002 19.1992 82.0002 20.7992V24.1992H80.9002V21.2992C80.9002 20.2992 80.6002 19.7992 79.9002 19.7992C79.0002 19.7992 78.6002 20.1992 78.4002 20.5992V24.1992H77.3002V18.7992" fill="#001A4B"/>
<path d="M86.7002 18.7996H87.8002V19.5996C88.0002 19.1996 88.5002 18.5996 89.5002 18.5996C89.7002 18.5996 89.8002 18.5996 89.9002 18.5996V19.8996C89.8002 19.8996 89.6002 19.7996 89.2002 19.7996C87.8002 19.7996 87.8002 20.7996 87.8002 21.1996V23.9996H86.7002V18.7996Z" fill="#001A4B"/>
<path d="M97.1001 21.3992C96.5001 21.3992 95.9001 21.4992 95.4001 21.6992C94.7001 21.8992 94.4001 22.0992 94.4001 22.5992C94.4001 22.9992 94.7001 23.2992 95.2001 23.2992C96.0001 23.2992 96.7001 22.8992 97.2001 22.5992V21.3992M98.2001 23.1992C98.2001 23.5992 98.2001 23.8992 98.3001 24.0992H97.2001C97.2001 23.8992 97.1001 23.6992 97.1001 23.5992C96.6001 23.8992 95.9001 24.2992 95.0001 24.2992C94.4001 24.2992 93.1001 23.9992 93.1001 22.6992C93.1001 20.8992 95.5001 20.6992 97.1001 20.5992V20.3992C97.1001 19.9992 96.8001 19.6992 95.8001 19.6992C94.8001 19.6992 94.6001 20.0992 94.5001 20.3992H93.3001C93.6001 18.9992 94.9001 18.6992 95.8001 18.6992C98.1001 18.6992 98.2001 19.8992 98.2001 20.6992V23.1992Z" fill="#001A4B"/>
<path d="M101.1 24.8008C102.1 23.7008 102.7 22.5008 102.7 20.8008C102.7 19.1008 102.1 17.9008 101.1 16.8008H102.3C103.2 17.8008 103.8 19.2008 103.8 20.8008C103.8 22.4008 103.2 23.9008 102.3 24.8008H101.1Z" fill="#001A4B"/>
<path d="M10.1 23.5C10.6 24 11.3 24.3 12.1 24.3C13.6 24.3 14.9 23.1 14.9 21.5C14.9 20.7 14.6 20 14.1 19.5L8.5 14C7.5 13 7.5 11.3 8.5 10.3L14 4.8C14.5 4.3 14.8 3.6 14.8 2.8C14.8 1.3 13.6 0 12 0C11.2 0 10.5 0.3 10 0.8L1 9.9C0.4 10.4 0 11.2 0 12.1C0 12.9 0.4 13.7 1 14.3L10.1 23.5Z" fill="#001A4B"/>
<path d="M104.7 2.2C104.7 3.1 105.4 3.9 106.4 3.9C107.3 3.9 108.1 3.2 108.1 2.2C108.1 1.3 107.3 0.5 106.4 0.5C105.4 0.5 104.7 1.3 104.7 2.2ZM104.9 2.2C104.9 1.4 105.5 0.8 106.3 0.8C107.1 0.8 107.7 1.4 107.7 2.2C107.7 3 107.1 3.6 106.3 3.6C105.5 3.6 104.9 3 104.9 2.2ZM106.9 3.2H107.2L106.6 2.3C106.9 2.3 107.1 2.1 107.1 1.7C107.1 1.3 106.9 1.1 106.5 1.1H105.7V3.1H106V2.3H106.4L106.9 3.2ZM105.9 1.4H106.3C106.5 1.4 106.8 1.4 106.8 1.7C106.8 2 106.6 2 106.3 2H105.9V1.4Z" fill="#001A4B"/>
</g>
</mask>
<g mask="url(#mask0_664_1802)">
<rect x="-86" y="-73" width="334" height="188" fill="white"/>
</g>
<defs>
<clipPath id="clip0_664_1802">
<rect width="108" height="24.8" fill="white"/>
</clipPath>
</defs>
</svg>
